<svg width="114.57mm" height="63.818mm" version="1.1" viewBox="0 0 114.57 63.818" xmlns="http://www.w3.org/2000/svg" xmlns:cc="http://creativecommons.org/ns#" xmlns:dc="http://purl.org/dc/elements/1.1/" xmlns:rdf="http://www.w3.org/1999/02/22-rdf-syntax-ns#">
 <defs>
  <marker id="marker6404" overflow="visible" orient="auto">
   <path transform="matrix(-.4 0 0 -.4 -4 0)" d="m0 0 5-5-17.5 5 17.5 5z" fill-rule="evenodd" stroke="#000" stroke-width="1pt"/>
  </marker>
  <marker id="marker6238" overflow="visible" orient="auto">
   <path transform="matrix(-.4 0 0 -.4 -4 0)" d="m0 0 5-5-17.5 5 17.5 5z" fill-rule="evenodd" stroke="#000" stroke-width="1pt"/>
  </marker>
  <marker id="marker6078" overflow="visible" orient="auto">
   <path transform="matrix(-.4 0 0 -.4 -4 0)" d="m0 0 5-5-17.5 5 17.5 5z" fill-rule="evenodd" stroke="#000" stroke-width="1pt"/>
  </marker>
  <marker id="marker5924" overflow="visible" orient="auto">
   <path transform="matrix(-.4 0 0 -.4 -4 0)" d="m0 0 5-5-17.5 5 17.5 5z" fill-rule="evenodd" stroke="#000" stroke-width="1pt"/>
  </marker>
  <marker id="marker5776" overflow="visible" orient="auto">
   <path transform="matrix(-.4 0 0 -.4 -4 0)" d="m0 0 5-5-17.5 5 17.5 5z" fill-rule="evenodd" stroke="#000" stroke-width="1pt"/>
  </marker>
  <marker id="marker5634" overflow="visible" orient="auto">
   <path transform="matrix(-.4 0 0 -.4 -4 0)" d="m0 0 5-5-17.5 5 17.5 5z" fill-rule="evenodd" stroke="#000" stroke-width="1pt"/>
  </marker>
  <marker id="marker5498" overflow="visible" orient="auto">
   <path transform="matrix(-.4 0 0 -.4 -4 0)" d="m0 0 5-5-17.5 5 17.5 5z" fill-rule="evenodd" stroke="#000" stroke-width="1pt"/>
  </marker>
  <marker id="marker5342" overflow="visible" orient="auto">
   <path transform="matrix(-.4 0 0 -.4 -4 0)" d="m0 0 5-5-17.5 5 17.5 5z" fill-rule="evenodd" stroke="#000" stroke-width="1pt"/>
  </marker>
  <marker id="marker5218" overflow="visible" orient="auto">
   <path transform="matrix(-.4 0 0 -.4 -4 0)" d="m0 0 5-5-17.5 5 17.5 5z" fill-rule="evenodd" stroke="#000" stroke-width="1pt"/>
  </marker>
  <marker id="marker5100" overflow="visible" orient="auto">
   <path transform="matrix(-.4 0 0 -.4 -4 0)" d="m0 0 5-5-17.5 5 17.5 5z" fill-rule="evenodd" stroke="#000" stroke-width="1pt"/>
  </marker>
  <marker id="marker4988" overflow="visible" orient="auto">
   <path transform="matrix(-.4 0 0 -.4 -4 0)" d="m0 0 5-5-17.5 5 17.5 5z" fill-rule="evenodd" stroke="#000" stroke-width="1pt"/>
  </marker>
  <marker id="marker2236" overflow="visible" orient="auto">
   <path transform="matrix(-.2 0 0 -.2 -1.2 0)" d="m0 0 5-5-17.5 5 17.5 5z" fill-rule="evenodd" stroke="#000" stroke-width="1pt"/>
  </marker>
  <marker id="marker2236-4" overflow="visible" orient="auto">
   <path transform="matrix(-.2 0 0 -.2 -1.2 0)" d="m0 0 5-5-17.5 5 17.5 5z" fill-rule="evenodd" stroke="#000" stroke-width="1pt"/>
  </marker>
 </defs>
 <metadata>
  <rdf:RDF>
   <cc:Work rdf:about="">
    <dc:format>image/svg+xml</dc:format>
    <dc:type rdf:resource="http://purl.org/dc/dcmitype/StillImage"/>
    <dc:title/>
   </cc:Work>
  </rdf:RDF>
 </metadata>
 <g transform="translate(-30.427 -98.603)">
  <g fill="#000000" font-family="sans-serif" font-size="10.583px" letter-spacing="0px" stroke-width=".26458" word-spacing="0px">
   <text x="61.783199" y="155.55948" style="line-height:1.25" xml:space="preserve"><tspan x="61.783199" y="155.55948" font-family="sans-serif" font-size="3.5278px" stroke-width=".26458" style="font-feature-settings:normal;font-variant-caps:normal;font-variant-ligatures:normal;font-variant-numeric:normal">1</tspan></text>
   <text x="77.223946" y="155.76897" style="line-height:1.25" xml:space="preserve"><tspan x="77.223946" y="155.76897" font-family="sans-serif" font-size="3.5278px" stroke-width=".26458" style="font-feature-settings:normal;font-variant-caps:normal;font-variant-ligatures:normal;font-variant-numeric:normal">2</tspan></text>
   <text x="31.589506" y="143.84436" style="line-height:1.25" xml:space="preserve"><tspan x="31.589506" y="143.84436" font-family="sans-serif" font-size="3.5278px" stroke-width=".26458" style="font-feature-settings:normal;font-variant-caps:normal;font-variant-ligatures:normal;font-variant-numeric:normal">3</tspan></text>
   <text x="45.855015" y="143.84436" style="line-height:1.25" xml:space="preserve"><tspan x="45.855015" y="143.84436" font-family="sans-serif" font-size="3.5278px" stroke-width=".26458" style="font-feature-settings:normal;font-variant-caps:normal;font-variant-ligatures:normal;font-variant-numeric:normal">4</tspan></text>
   <text x="68.540466" y="132.93005" style="line-height:1.25" xml:space="preserve"><tspan x="68.540466" y="132.93005" font-family="sans-serif" font-size="3.5278px" stroke-width=".26458" style="font-feature-settings:normal;font-variant-caps:normal;font-variant-ligatures:normal;font-variant-numeric:normal">5</tspan></text>
   <text x="50.117695" y="118.64105" style="line-height:1.25" xml:space="preserve"><tspan x="50.117695" y="118.64105" font-family="sans-serif" font-size="3.5278px" stroke-width=".26458" style="font-feature-settings:normal;font-variant-caps:normal;font-variant-ligatures:normal;font-variant-numeric:normal">6</tspan></text>
   <text x="84.768509" y="120.32743" style="line-height:1.25" xml:space="preserve"><tspan x="84.768509" y="120.32743" font-family="sans-serif" font-size="3.5278px" stroke-width=".26458" style="font-feature-settings:normal;font-variant-caps:normal;font-variant-ligatures:normal;font-variant-numeric:normal">7</tspan></text>
  </g>
  <path d="m66.117 106.81a4.4218 4.4218 0 0 1-1.4334-4.9985 4.4218 4.4218 0 0 1 4.3124-2.9057 4.4218 4.4218 0 0 1 4.0944 3.2055 4.4218 4.4218 0 0 1-1.7858 4.8837" fill="none" marker-end="url(#marker2236)" stroke="#000" stroke-width=".5905"/>
  <g fill="#000000" font-family="sans-serif" font-size="10.583px" letter-spacing="0px" stroke-width=".26458" word-spacing="0px">
   <text x="138.0282" y="105.14528" style="line-height:1.25" xml:space="preserve"><tspan x="138.0282" y="105.14528" font-family="sans-serif" font-size="3.5278px" stroke-width=".26458" style="font-feature-settings:normal;font-variant-caps:normal;font-variant-ligatures:normal;font-variant-numeric:normal">13</tspan></text>
   <text x="134.47304" y="123.67988" style="line-height:1.25" xml:space="preserve"><tspan x="134.47304" y="123.67988" font-family="sans-serif" font-size="3.5278px" stroke-width=".26458" style="font-feature-settings:normal;font-variant-caps:normal;font-variant-ligatures:normal;font-variant-numeric:normal">12</tspan></text>
   <text x="124.93105" y="136.02773" style="line-height:1.25" xml:space="preserve"><tspan x="124.93105" y="136.02773" font-family="sans-serif" font-size="3.5278px" stroke-width=".26458" style="font-feature-settings:normal;font-variant-caps:normal;font-variant-ligatures:normal;font-variant-numeric:normal">11</tspan></text>
   <text x="114.86861" y="148.84283" style="line-height:1.25" xml:space="preserve"><tspan x="114.86861" y="148.84283" font-family="sans-serif" font-size="3.5278px" stroke-width=".26458" style="font-feature-settings:normal;font-variant-caps:normal;font-variant-ligatures:normal;font-variant-numeric:normal">10</tspan></text>
   <text x="105.72739" y="161.61804" style="line-height:1.25" xml:space="preserve"><tspan x="105.72739" y="161.61804" font-family="sans-serif" font-size="3.5278px" stroke-width=".26458" style="font-feature-settings:normal;font-variant-caps:normal;font-variant-ligatures:normal;font-variant-numeric:normal">9</tspan></text>
  </g>
  <g fill-rule="evenodd" stroke="#000">
   <circle cx="63.354" cy="149.07" r="2.3808" stroke-width=".23845"/>
   <g stroke-width=".23845">
    <circle cx="77.906" cy="149.07" r="2.3808"/>
    <circle cx="111.34" cy="147.22" r="2.3808"/>
    <circle cx="101.72" cy="159.92" r="2.3808"/>
    <circle cx="120.97" cy="134.52" r="2.3808"/>
   </g>
   <circle cx="69.704" cy="137.43" r="2.3808" stroke-width=".23845"/>
   <circle cx="32.927" cy="137.43" r="2.3808" stroke-width=".23845"/>
   <g stroke-width=".23845">
    <circle cx="47.479" cy="137.43" r="2.3808"/>
    <circle cx="140.22" cy="109.12" r="2.3808"/>
    <circle cx="130.59" cy="121.82" r="2.3808"/>
   </g>
   <g stroke-width=".23845">
    <circle cx="51.712" cy="123.8" r="2.3808"/>
    <circle cx="85.843" cy="123.8" r="2.3808"/>
    <circle cx="68.91" cy="109.12" r="2.3808"/>
   </g>
  </g>
  <g fill="none" stroke="#000">
   <g stroke-width=".265">
    <path d="m102 159.64 7.9375-10.583" marker-end="url(#marker5100)"/>
    <path d="m111.26 147.74 7.9375-10.583" marker-end="url(#marker5218)"/>
    <path d="m120.52 134.51 7.9375-10.583" marker-end="url(#marker4988)"/>
    <path d="m131.1 121.28 7.9375-10.583" marker-end="url(#marker5342)"/>
   </g>
   <g stroke-width=".26458px">
    <path d="m78.184 149.06-7.9375-9.2604" marker-end="url(#marker6404)"/>
    <path d="m63.632 149.06 5.2917-9.2604" marker-end="url(#marker5498)"/>
    <path d="m86.122 123.92-17.198-11.906" marker-end="url(#marker6078)"/>
    <path d="m51.726 123.92 17.198-11.906" marker-end="url(#marker6238)"/>
    <path d="m33.205 137.15 18.521-10.583" marker-end="url(#marker5924)"/>
    <path d="m46.434 137.15 5.2917-10.583" marker-end="url(#marker5776)"/>
    <path d="m70.247 137.15-18.521-10.583" marker-end="url(#marker5634)"/>
   </g>
   <path d="m137.55 106.81a4.4218 4.4218 0 0 1-1.4334-4.9985 4.4218 4.4218 0 0 1 4.3124-2.9057 4.4218 4.4218 0 0 1 4.0944 3.2055 4.4218 4.4218 0 0 1-1.7858 4.8837" marker-end="url(#marker2236-4)" stroke-width=".5905"/>
  </g>
  <text x="67.500336" y="105.80646" fill="#000000" font-family="sans-serif" font-size="10.583px" letter-spacing="0px" stroke-width=".26458" word-spacing="0px" style="line-height:1.25" xml:space="preserve"><tspan x="67.500336" y="105.80646" font-family="sans-serif" font-size="3.5278px" stroke-width=".26458" style="font-feature-settings:normal;font-variant-caps:normal;font-variant-ligatures:normal;font-variant-numeric:normal">8</tspan></text>
 </g>
</svg>
