<svg width="99.754mm" height="38.498mm" version="1.1" viewBox="0 0 99.754 38.498" xmlns="http://www.w3.org/2000/svg" xmlns:cc="http://creativecommons.org/ns#" xmlns:dc="http://purl.org/dc/elements/1.1/" xmlns:rdf="http://www.w3.org/1999/02/22-rdf-syntax-ns#">
 <defs>
  <marker id="marker14883" overflow="visible" orient="auto">
   <path transform="matrix(-.4 0 0 -.4 -4 0)" d="m0 0 5-5-17.5 5 17.5 5z" fill-rule="evenodd" stroke="#000" stroke-width="1pt"/>
  </marker>
  <marker id="marker14687" overflow="visible" orient="auto">
   <path transform="matrix(-.4 0 0 -.4 -4 0)" d="m0 0 5-5-17.5 5 17.5 5z" fill-rule="evenodd" stroke="#000" stroke-width="1pt"/>
  </marker>
  <marker id="marker14497" overflow="visible" orient="auto">
   <path transform="matrix(-.4 0 0 -.4 -4 0)" d="m0 0 5-5-17.5 5 17.5 5z" fill-rule="evenodd" stroke="#000" stroke-width="1pt"/>
  </marker>
  <marker id="marker14313" overflow="visible" orient="auto">
   <path transform="matrix(-.4 0 0 -.4 -4 0)" d="m0 0 5-5-17.5 5 17.5 5z" fill-rule="evenodd" stroke="#000" stroke-width="1pt"/>
  </marker>
  <marker id="marker13567" overflow="visible" orient="auto">
   <path transform="matrix(-.4 0 0 -.4 -4 0)" d="m0 0 5-5-17.5 5 17.5 5z" fill-rule="evenodd" stroke="#000" stroke-width="1pt"/>
  </marker>
  <marker id="marker13389" overflow="visible" orient="auto">
   <path transform="matrix(-.4 0 0 -.4 -4 0)" d="m0 0 5-5-17.5 5 17.5 5z" fill-rule="evenodd" stroke="#000" stroke-width="1pt"/>
  </marker>
  <marker id="marker13217" overflow="visible" orient="auto">
   <path transform="matrix(-.4 0 0 -.4 -4 0)" d="m0 0 5-5-17.5 5 17.5 5z" fill-rule="evenodd" stroke="#000" stroke-width="1pt"/>
  </marker>
  <marker id="marker13051" overflow="visible" orient="auto">
   <path transform="matrix(-.4 0 0 -.4 -4 0)" d="m0 0 5-5-17.5 5 17.5 5z" fill-rule="evenodd" stroke="#000" stroke-width="1pt"/>
  </marker>
  <marker id="marker12891" overflow="visible" orient="auto">
   <path transform="matrix(-.4 0 0 -.4 -4 0)" d="m0 0 5-5-17.5 5 17.5 5z" fill-rule="evenodd" stroke="#000" stroke-width="1pt"/>
  </marker>
  <marker id="marker12737" overflow="visible" orient="auto">
   <path transform="matrix(-.4 0 0 -.4 -4 0)" d="m0 0 5-5-17.5 5 17.5 5z" fill-rule="evenodd" stroke="#000" stroke-width="1pt"/>
  </marker>
  <marker id="marker12263" overflow="visible" orient="auto">
   <path transform="matrix(-.4 0 0 -.4 -4 0)" d="m0 0 5-5-17.5 5 17.5 5z" fill-rule="evenodd" stroke="#000" stroke-width="1pt"/>
  </marker>
  <marker id="marker2236" overflow="visible" orient="auto">
   <path transform="matrix(-.2 0 0 -.2 -1.2 0)" d="m0 0 5-5-17.5 5 17.5 5z" fill-rule="evenodd" stroke="#000" stroke-width="1pt"/>
  </marker>
  <marker id="marker2236-4" overflow="visible" orient="auto">
   <path transform="matrix(-.2 0 0 -.2 -1.2 0)" d="m0 0 5-5-17.5 5 17.5 5z" fill-rule="evenodd" stroke="#000" stroke-width="1pt"/>
  </marker>
 </defs>
 <metadata>
  <rdf:RDF>
   <cc:Work rdf:about="">
    <dc:format>image/svg+xml</dc:format>
    <dc:type rdf:resource="http://purl.org/dc/dcmitype/StillImage"/>
    <dc:title/>
   </cc:Work>
  </rdf:RDF>
 </metadata>
 <g transform="translate(-34.924 -103.89)">
  <g fill="#000000" font-family="sans-serif" font-size="10.583px" letter-spacing="0px" stroke-width=".26458" word-spacing="0px">
   <text x="35.722244" y="132.49605" style="line-height:1.25" xml:space="preserve"><tspan x="35.722244" y="132.49605" font-family="sans-serif" font-size="3.5278px" stroke-width=".26458" style="font-feature-settings:normal;font-variant-caps:normal;font-variant-ligatures:normal;font-variant-numeric:normal">1</tspan></text>
   <text x="43.422722" y="137.37161" style="line-height:1.25" xml:space="preserve"><tspan x="43.422722" y="137.37161" font-family="sans-serif" font-size="3.5278px" stroke-width=".26458" style="font-feature-settings:normal;font-variant-caps:normal;font-variant-ligatures:normal;font-variant-numeric:normal">2</tspan></text>
   <text x="51.319767" y="140.42099" style="line-height:1.25" xml:space="preserve"><tspan x="51.319767" y="140.42099" font-family="sans-serif" font-size="3.5278px" stroke-width=".26458" style="font-feature-settings:normal;font-variant-caps:normal;font-variant-ligatures:normal;font-variant-numeric:normal">3</tspan></text>
   <text x="59.506435" y="142.392" style="line-height:1.25" xml:space="preserve"><tspan x="59.506435" y="142.392" font-family="sans-serif" font-size="3.5278px" stroke-width=".26458" style="font-feature-settings:normal;font-variant-caps:normal;font-variant-ligatures:normal;font-variant-numeric:normal">4</tspan></text>
   <text x="67.562294" y="140.39429" style="line-height:1.25" xml:space="preserve"><tspan x="67.562294" y="140.39429" font-family="sans-serif" font-size="3.5278px" stroke-width=".26458" style="font-feature-settings:normal;font-variant-caps:normal;font-variant-ligatures:normal;font-variant-numeric:normal">5</tspan></text>
   <text x="74.897667" y="137.34233" style="line-height:1.25" xml:space="preserve"><tspan x="74.897667" y="137.34233" font-family="sans-serif" font-size="3.5278px" stroke-width=".26458" style="font-feature-settings:normal;font-variant-caps:normal;font-variant-ligatures:normal;font-variant-numeric:normal">6</tspan></text>
   <text x="83.274078" y="132.49173" style="line-height:1.25" xml:space="preserve"><tspan x="83.274078" y="132.49173" font-family="sans-serif" font-size="3.5278px" stroke-width=".26458" style="font-feature-settings:normal;font-variant-caps:normal;font-variant-ligatures:normal;font-variant-numeric:normal">7</tspan></text>
  </g>
  <path d="m58.18 112.1a4.4218 4.4218 0 0 1-1.4334-4.9985 4.4218 4.4218 0 0 1 4.3124-2.9057 4.4218 4.4218 0 0 1 4.0944 3.2055 4.4218 4.4218 0 0 1-1.7858 4.8837" fill="none" marker-end="url(#marker2236)" stroke="#000" stroke-width=".5905"/>
  <g fill="#000000" font-family="sans-serif" font-size="10.583px" letter-spacing="0px" stroke-width=".26458" word-spacing="0px">
   <text x="115.69916" y="111.68025" style="line-height:1.25" xml:space="preserve"><tspan x="115.69916" y="111.68025" font-family="sans-serif" font-size="3.5278px" stroke-width=".26458" style="font-feature-settings:normal;font-variant-caps:normal;font-variant-ligatures:normal;font-variant-numeric:normal">13</tspan></text>
   <text x="130.10742" y="137.97758" style="line-height:1.25" xml:space="preserve"><tspan x="130.10742" y="137.97758" font-family="sans-serif" font-size="3.5278px" stroke-width=".26458" style="font-feature-settings:normal;font-variant-caps:normal;font-variant-ligatures:normal;font-variant-numeric:normal">12</tspan></text>
   <text x="121.09459" y="141.30739" style="line-height:1.25" xml:space="preserve"><tspan x="121.09459" y="141.30739" font-family="sans-serif" font-size="3.5278px" stroke-width=".26458" style="font-feature-settings:normal;font-variant-caps:normal;font-variant-ligatures:normal;font-variant-numeric:normal">11</tspan></text>
   <text x="111.8259" y="141.30222" style="line-height:1.25" xml:space="preserve"><tspan x="111.8259" y="141.30222" font-family="sans-serif" font-size="3.5278px" stroke-width=".26458" style="font-feature-settings:normal;font-variant-caps:normal;font-variant-ligatures:normal;font-variant-numeric:normal">10</tspan></text>
   <text x="104.00759" y="137.95175" style="line-height:1.25" xml:space="preserve"><tspan x="104.00759" y="137.95175" font-family="sans-serif" font-size="3.5278px" stroke-width=".26458" style="font-feature-settings:normal;font-variant-caps:normal;font-variant-ligatures:normal;font-variant-numeric:normal">9</tspan></text>
  </g>
  <g fill-rule="evenodd" stroke="#000">
   <circle cx="37.424" cy="125.76" r="2.3808" stroke-width=".23845"/>
   <g stroke-width=".23845">
    <circle cx="45.1" cy="130.19" r="2.3808"/>
    <circle cx="113.72" cy="134.59" r="2.3808"/>
    <circle cx="104.89" cy="131.15" r="2.3808"/>
    <circle cx="123.22" cy="134.59" r="2.3808"/>
   </g>
   <circle cx="68.127" cy="133.27" r="2.3808" stroke-width=".23845"/>
   <circle cx="52.775" cy="133.27" r="2.3808" stroke-width=".23845"/>
   <g stroke-width=".23845">
    <circle cx="60.764" cy="134.99" r="2.3808"/>
    <circle cx="117.89" cy="115.66" r="2.3808"/>
    <circle cx="132.18" cy="131.15" r="2.3808"/>
   </g>
   <g stroke-width=".23845">
    <circle cx="75.802" cy="130.19" r="2.3808"/>
    <circle cx="83.478" cy="125.76" r="2.3808"/>
    <circle cx="60.764" cy="114.42" r="2.3808"/>
   </g>
  </g>
  <path d="m115.23 113.34a4.4218 4.4218 0 0 1-1.4334-4.9985 4.4218 4.4218 0 0 1 4.3124-2.9057 4.4218 4.4218 0 0 1 4.0944 3.2055 4.4218 4.4218 0 0 1-1.7858 4.8837" fill="none" marker-end="url(#marker2236-4)" stroke="#000" stroke-width=".5905"/>
  <text x="59.562828" y="111.09811" fill="#000000" font-family="sans-serif" font-size="10.583px" letter-spacing="0px" stroke-width=".26458" word-spacing="0px" style="line-height:1.25" xml:space="preserve"><tspan x="59.562828" y="111.09811" font-family="sans-serif" font-size="3.5278px" stroke-width=".26458" style="font-feature-settings:normal;font-variant-caps:normal;font-variant-ligatures:normal;font-variant-numeric:normal">8</tspan></text>
  <g fill="none" stroke="#000" stroke-width=".26458px">
   <path d="m37.174 126.57 23.812-11.906" marker-end="url(#marker13389)"/>
   <path d="m45.111 130.54 15.875-15.875" marker-end="url(#marker13217)"/>
   <path d="m53.049 133.18 7.9375-18.521" marker-end="url(#marker13051)"/>
   <path d="m60.986 134.51v-19.844" marker-end="url(#marker12891)"/>
   <path d="m67.601 133.18-6.6146-18.521" marker-end="url(#marker12737)"/>
   <path d="m75.538 130.54-14.552-15.875" marker-end="url(#marker12263)"/>
   <path d="m83.476 126.57-22.49-11.906" marker-end="url(#marker13567)"/>
   <path d="m104.64 131.86 13.229-14.552" marker-end="url(#marker14687)"/>
   <path d="m113.9 134.51 3.9688-17.198" marker-end="url(#marker14497)"/>
   <path d="m123.16 135.83-5.2917-17.198" marker-end="url(#marker14313)"/>
   <path d="m132.42 131.86-14.552-14.552" marker-end="url(#marker14883)"/>
  </g>
 </g>
</svg>
