<svg width="114.57mm" height="63.818mm" version="1.1" viewBox="0 0 114.57 63.818" xmlns="http://www.w3.org/2000/svg" xmlns:cc="http://creativecommons.org/ns#" xmlns:dc="http://purl.org/dc/elements/1.1/" xmlns:rdf="http://www.w3.org/1999/02/22-rdf-syntax-ns#">
 <defs>
  <marker id="marker10692" overflow="visible" orient="auto">
   <path transform="matrix(-.4 0 0 -.4 -4 0)" d="m0 0 5-5-17.5 5 17.5 5z" fill-rule="evenodd" stroke="#000" stroke-width="1pt"/>
  </marker>
  <marker id="marker10542" overflow="visible" orient="auto">
   <path transform="matrix(-.4 0 0 -.4 -4 0)" d="m0 0 5-5-17.5 5 17.5 5z" fill-rule="evenodd" stroke="#000" stroke-width="1pt"/>
  </marker>
  <marker id="marker10406" overflow="visible" orient="auto">
   <path transform="matrix(-.4 0 0 -.4 -4 0)" d="m0 0 5-5-17.5 5 17.5 5z" fill-rule="evenodd" stroke="#000" stroke-width="1pt"/>
  </marker>
  <marker id="marker10276" overflow="visible" orient="auto">
   <path transform="matrix(-.4 0 0 -.4 -4 0)" d="m0 0 5-5-17.5 5 17.5 5z" fill-rule="evenodd" stroke="#000" stroke-width="1pt"/>
  </marker>
  <marker id="marker7204" overflow="visible" orient="auto">
   <path transform="matrix(-.4 0 0 -.4 -4 0)" d="m0 0 5-5-17.5 5 17.5 5z" fill-rule="evenodd" stroke="#000" stroke-width="1pt"/>
  </marker>
  <marker id="marker6404" overflow="visible" orient="auto">
   <path transform="matrix(-.4 0 0 -.4 -4 0)" d="m0 0 5-5-17.5 5 17.5 5z" fill-rule="evenodd" stroke="#000" stroke-width="1pt"/>
  </marker>
  <marker id="marker5498" overflow="visible" orient="auto">
   <path transform="matrix(-.4 0 0 -.4 -4 0)" d="m0 0 5-5-17.5 5 17.5 5z" fill-rule="evenodd" stroke="#000" stroke-width="1pt"/>
  </marker>
  <marker id="marker5342" overflow="visible" orient="auto">
   <path transform="matrix(-.4 0 0 -.4 -4 0)" d="m0 0 5-5-17.5 5 17.5 5z" fill-rule="evenodd" stroke="#000" stroke-width="1pt"/>
  </marker>
  <marker id="marker2236" overflow="visible" orient="auto">
   <path transform="matrix(-.2 0 0 -.2 -1.2 0)" d="m0 0 5-5-17.5 5 17.5 5z" fill-rule="evenodd" stroke="#000" stroke-width="1pt"/>
  </marker>
  <marker id="marker2236-4" overflow="visible" orient="auto">
   <path transform="matrix(-.2 0 0 -.2 -1.2 0)" d="m0 0 5-5-17.5 5 17.5 5z" fill-rule="evenodd" stroke="#000" stroke-width="1pt"/>
  </marker>
  <marker id="marker10692-6" overflow="visible" orient="auto">
   <path transform="matrix(-.4 0 0 -.4 -4 0)" d="m0 0 5-5-17.5 5 17.5 5z" fill-rule="evenodd" stroke="#000" stroke-width="1pt"/>
  </marker>
  <marker id="marker10692-2" overflow="visible" orient="auto">
   <path transform="matrix(-.4 0 0 -.4 -4 0)" d="m0 0 5-5-17.5 5 17.5 5z" fill-rule="evenodd" stroke="#000" stroke-width="1pt"/>
  </marker>
 </defs>
 <metadata>
  <rdf:RDF>
   <cc:Work rdf:about="">
    <dc:format>image/svg+xml</dc:format>
    <dc:type rdf:resource="http://purl.org/dc/dcmitype/StillImage"/>
    <dc:title/>
   </cc:Work>
  </rdf:RDF>
 </metadata>
 <g transform="translate(-30.427 -98.603)">
  <g fill="#000000" font-family="sans-serif" font-size="10.583px" letter-spacing="0px" stroke-width=".26458" word-spacing="0px">
   <text x="48.951412" y="141.11214" style="line-height:1.25" xml:space="preserve"><tspan x="48.951412" y="141.11214" font-family="sans-serif" font-size="3.5278px" stroke-width=".26458" style="font-feature-settings:normal;font-variant-caps:normal;font-variant-ligatures:normal;font-variant-numeric:normal">1</tspan></text>
   <text x="63.531059" y="141.13454" style="line-height:1.25" xml:space="preserve"><tspan x="63.531059" y="141.13454" font-family="sans-serif" font-size="3.5278px" stroke-width=".26458" style="font-feature-settings:normal;font-variant-caps:normal;font-variant-ligatures:normal;font-variant-numeric:normal">2</tspan></text>
   <text x="34.518726" y="131.67621" style="line-height:1.25" xml:space="preserve"><tspan x="34.518726" y="131.67621" font-family="sans-serif" font-size="3.5278px" stroke-width=".26458" style="font-feature-settings:normal;font-variant-caps:normal;font-variant-ligatures:normal;font-variant-numeric:normal">3</tspan></text>
   <text x="45.086647" y="131.67621" style="line-height:1.25" xml:space="preserve"><tspan x="45.086647" y="131.67621" font-family="sans-serif" font-size="3.5278px" stroke-width=".26458" style="font-feature-settings:normal;font-variant-caps:normal;font-variant-ligatures:normal;font-variant-numeric:normal">4</tspan></text>
   <text x="66.107086" y="131.64951" style="line-height:1.25" xml:space="preserve"><tspan x="66.107086" y="131.64951" font-family="sans-serif" font-size="3.5278px" stroke-width=".26458" style="font-feature-settings:normal;font-variant-caps:normal;font-variant-ligatures:normal;font-variant-numeric:normal">5</tspan></text>
   <text x="55.583084" y="131.48654" style="line-height:1.25" xml:space="preserve"><tspan x="55.583084" y="131.48654" font-family="sans-serif" font-size="3.5278px" stroke-width=".26458" style="font-feature-settings:normal;font-variant-caps:normal;font-variant-ligatures:normal;font-variant-numeric:normal">6</tspan></text>
   <text x="76.6595" y="131.67621" style="line-height:1.25" xml:space="preserve"><tspan x="76.6595" y="131.67621" font-family="sans-serif" font-size="3.5278px" stroke-width=".26458" style="font-feature-settings:normal;font-variant-caps:normal;font-variant-ligatures:normal;font-variant-numeric:normal">7</tspan></text>
  </g>
  <path d="m54.476 110.51a4.4218 4.4218 0 0 1-1.4334-4.9985 4.4218 4.4218 0 0 1 4.3124-2.9057 4.4218 4.4218 0 0 1 4.0944 3.2055 4.4218 4.4218 0 0 1-1.7858 4.8837" fill="none" marker-end="url(#marker2236)" stroke="#000" stroke-width=".5905"/>
  <g fill="#000000" font-family="sans-serif" font-size="10.583px" letter-spacing="0px" stroke-width=".26458" word-spacing="0px">
   <text x="138.0282" y="105.14528" style="line-height:1.25" xml:space="preserve"><tspan x="138.0282" y="105.14528" font-family="sans-serif" font-size="3.5278px" stroke-width=".26458" style="font-feature-settings:normal;font-variant-caps:normal;font-variant-ligatures:normal;font-variant-numeric:normal">13</tspan></text>
   <text x="134.47304" y="123.67988" style="line-height:1.25" xml:space="preserve"><tspan x="134.47304" y="123.67988" font-family="sans-serif" font-size="3.5278px" stroke-width=".26458" style="font-feature-settings:normal;font-variant-caps:normal;font-variant-ligatures:normal;font-variant-numeric:normal">12</tspan></text>
   <text x="124.93105" y="136.02773" style="line-height:1.25" xml:space="preserve"><tspan x="124.93105" y="136.02773" font-family="sans-serif" font-size="3.5278px" stroke-width=".26458" style="font-feature-settings:normal;font-variant-caps:normal;font-variant-ligatures:normal;font-variant-numeric:normal">11</tspan></text>
   <text x="114.86861" y="148.84283" style="line-height:1.25" xml:space="preserve"><tspan x="114.86861" y="148.84283" font-family="sans-serif" font-size="3.5278px" stroke-width=".26458" style="font-feature-settings:normal;font-variant-caps:normal;font-variant-ligatures:normal;font-variant-numeric:normal">10</tspan></text>
   <text x="105.72739" y="161.61804" style="line-height:1.25" xml:space="preserve"><tspan x="105.72739" y="161.61804" font-family="sans-serif" font-size="3.5278px" stroke-width=".26458" style="font-feature-settings:normal;font-variant-caps:normal;font-variant-ligatures:normal;font-variant-numeric:normal">9</tspan></text>
  </g>
  <g fill-rule="evenodd" stroke="#000">
   <circle cx="50.124" cy="134.52" r="2.3808" stroke-width=".23845"/>
   <g stroke-width=".23845">
    <circle cx="64.677" cy="134.52" r="2.3808"/>
    <circle cx="111.34" cy="147.22" r="2.3808"/>
    <circle cx="101.72" cy="159.92" r="2.3808"/>
    <circle cx="120.97" cy="134.52" r="2.3808"/>
   </g>
   <circle cx="66.58" cy="123.21" r="2.3808" stroke-width=".23845"/>
   <circle cx="35.733" cy="123.21" r="2.3808" stroke-width=".23845"/>
   <g stroke-width=".23845">
    <circle cx="46.015" cy="123.21" r="2.3808"/>
    <circle cx="140.22" cy="109.12" r="2.3808"/>
    <circle cx="130.59" cy="121.82" r="2.3808"/>
   </g>
   <g stroke-width=".23845">
    <circle cx="56.298" cy="123.21" r="2.3808"/>
    <circle cx="76.863" cy="123.21" r="2.3808"/>
    <circle cx="56.843" cy="113.36" r="2.3808"/>
   </g>
  </g>
  <g fill="none" stroke="#000">
   <g>
    <path d="m131.1 121.28 7.9375-10.583" marker-end="url(#marker5342)" stroke-width=".265"/>
    <path d="m64.955 134.51-7.9375-9.2604" marker-end="url(#marker6404)" stroke-width=".26458px"/>
    <path d="m50.403 134.51 5.2917-9.2604" marker-end="url(#marker5498)" stroke-width=".26458px"/>
   </g>
   <path d="m137.55 106.81a4.4218 4.4218 0 0 1-1.4334-4.9985 4.4218 4.4218 0 0 1 4.3124-2.9057 4.4218 4.4218 0 0 1 4.0944 3.2055 4.4218 4.4218 0 0 1-1.7858 4.8837" marker-end="url(#marker2236-4)" stroke-width=".5905"/>
  </g>
  <text x="55.858658" y="109.51063" fill="#000000" font-family="sans-serif" font-size="10.583px" letter-spacing="0px" stroke-width=".26458" word-spacing="0px" style="line-height:1.25" xml:space="preserve"><tspan x="55.858658" y="109.51063" font-family="sans-serif" font-size="3.5278px" stroke-width=".26458" style="font-feature-settings:normal;font-variant-caps:normal;font-variant-ligatures:normal;font-variant-numeric:normal">8</tspan></text>
  <g fill="none" stroke="#000">
   <g stroke-width=".26458px">
    <path d="m35.851 121.28 21.167-5.2917" marker-end="url(#marker7204)"/>
    <path d="m46.434 123.92 10.583-7.9375" marker-end="url(#marker10406)"/>
    <path d="m78.184 123.92-21.167-7.9375" marker-end="url(#marker7204)"/>
    <path d="m67.601 123.92-10.583-7.9375" marker-end="url(#marker10276)"/>
    <path d="m57.017 123.92v-7.9375" marker-end="url(#marker10542)"/>
   </g>
   <g stroke-width=".23673px">
    <path d="m100.12 157s-0.0603-12.227 3.551-16.571c3.279-3.9443 14.204-5.9183 14.204-5.9183" marker-end="url(#marker10692)"/>
    <path d="m109.38 145.09s-0.0603-12.227 3.551-16.571c3.279-3.9443 14.204-5.9183 14.204-5.9183" marker-end="url(#marker10692-6)"/>
    <path d="m118.64 133.18s-0.0603-12.227 3.551-16.571c3.279-3.9443 14.204-5.9183 14.204-5.9183" marker-end="url(#marker10692-2)"/>
   </g>
  </g>
 </g>
</svg>
