<svg width="70.169mm" height="31.857mm" version="1.1" viewBox="0 0 70.169 31.857" xmlns="http://www.w3.org/2000/svg" xmlns:cc="http://creativecommons.org/ns#" xmlns:dc="http://purl.org/dc/elements/1.1/" xmlns:rdf="http://www.w3.org/1999/02/22-rdf-syntax-ns#">
 <metadata>
  <rdf:RDF>
   <cc:Work rdf:about="">
    <dc:format>image/svg+xml</dc:format>
    <dc:type rdf:resource="http://purl.org/dc/dcmitype/StillImage"/>
    <dc:title/>
   </cc:Work>
  </rdf:RDF>
 </metadata>
 <g transform="translate(-18.317 -60.334)" stroke="#000">
  <g fill-rule="evenodd">
   <circle cx="25.823" cy="80.58" r="2.2724" stroke-width=".4552"/>
   <circle cx="20.817" cy="89.69" r="2.2724" stroke-width=".4552"/>
   <circle cx="30.127" cy="89.69" r="2.2724" stroke-width=".4552"/>
   <g stroke-width=".4552">
    <circle cx="39.436" cy="89.69" r="2.2724"/>
    <circle cx="48.746" cy="89.69" r="2.2724"/>
    <circle cx="58.056" cy="89.69" r="2.2724"/>
    <circle cx="67.366" cy="89.69" r="2.2724"/>
    <circle cx="76.676" cy="89.69" r="2.2724"/>
    <circle cx="85.986" cy="89.69" r="2.2724"/>
   </g>
   <g stroke-width=".4552">
    <circle cx="44.382" cy="80.58" r="2.2724"/>
    <circle cx="62.941" cy="80.58" r="2.2724"/>
    <circle cx="81.5" cy="80.58" r="2.2724"/>
    <circle cx="34.872" cy="71.844" r="2.2724"/>
    <circle cx="72.111" cy="71.844" r="2.2724"/>
    <circle cx="53.033" cy="62.834" r="2.2724"/>
   </g>
  </g>
  <g fill="none">
   <path d="m25.135 81.365-3.9688 7.9375" stroke-width=".20495px"/>
   <path d="m26.458 81.365 2.6458 7.9375" stroke-width=".26458px"/>
   <path d="m43.656 81.365-3.9688 7.9375" stroke-width=".20495px"/>
   <path d="m44.979 81.365 2.6458 7.9375" stroke-width=".26458px"/>
   <path d="m62.177 81.365-3.9688 7.9375" stroke-width=".20495px"/>
   <path d="m63.5 81.365 2.6458 7.9375" stroke-width=".26458px"/>
   <path d="m80.698 81.365-3.9688 7.9375" stroke-width=".20495px"/>
   <g stroke-width=".26458px">
    <path d="m82.021 81.365 2.6458 7.9375"/>
    <path d="m34.396 72.104-7.9375 7.9375"/>
    <path d="m35.719 72.104 7.9375 7.9375"/>
    <path d="m71.437 72.104-7.9375 7.9375"/>
    <path d="m72.76 72.104 7.9375 7.9375"/>
    <path d="m51.594 62.844-15.875 7.9375"/>
    <path d="m54.24 62.844 17.198 7.9375"/>
   </g>
  </g>
 </g>
</svg>
