<svg width="2.1253in" height="1.9058in" version="1.1" viewBox="0 0 53.983 48.408" xmlns="http://www.w3.org/2000/svg" xmlns:cc="http://creativecommons.org/ns#" xmlns:dc="http://purl.org/dc/elements/1.1/" xmlns:rdf="http://www.w3.org/1999/02/22-rdf-syntax-ns#">
 <metadata>
  <rdf:RDF>
   <cc:Work rdf:about="">
    <dc:format>image/svg+xml</dc:format>
    <dc:type rdf:resource="http://purl.org/dc/dcmitype/StillImage"/>
    <dc:title/>
   </cc:Work>
  </rdf:RDF>
 </metadata>
 <g transform="translate(-83.203 -29.638)">
  <g>
   <circle cx="89.784" cy="37.894" r="2.5"/>
   <circle cx="102.95" cy="37.894" r="2.5"/>
   <circle cx="116.12" cy="37.894" r="2.5"/>
   <circle cx="129.28" cy="37.894" r="2.5"/>
   <circle cx="89.784" cy="49.422" r="2.5"/>
   <circle cx="102.95" cy="49.422" r="2.5"/>
   <circle cx="116.12" cy="49.422" r="2.5"/>
   <circle cx="129.28" cy="49.422" r="2.5"/>
   <circle cx="89.784" cy="61.329" r="2.5"/>
   <circle cx="102.95" cy="61.329" r="2.5"/>
   <circle cx="116.12" cy="61.329" r="2.5"/>
   <circle cx="129.28" cy="61.329" r="2.5"/>
   <circle cx="89.784" cy="72.29" r="2.5"/>
   <circle cx="102.95" cy="72.29" r="2.5"/>
   <circle cx="116.12" cy="72.29" r="2.5"/>
   <circle cx="129.28" cy="72.29" r="2.5"/>
  </g>
  <g fill="none" stroke="#000" stroke-width=".26458px">
   <path d="m89.958 37.708h39.687v34.396h-39.687v-10.583z"/>
   <path d="m89.958 49.35h39.687"/>
   <path d="m89.958 61.521h39.687"/>
   <path d="m103.19 37.708v34.396"/>
   <path d="m116.42 37.708v34.396"/>
  </g>
  <g fill="none" stroke="#000">
   <path d="m87.308 37.708a3.9688 3.9688 0 0 1-3.4406-1.9847 3.9688 3.9688 0 0 1 0.0023-3.972 3.9688 3.9688 0 0 1 3.4429-1.9807" stroke-width=".265"/>
   <path transform="scale(-1)" d="m-130.97-29.771a3.9688 3.9688 0 0 1-3.4406-1.9847 3.9688 3.9688 0 0 1 2e-3 -3.972 3.9688 3.9688 0 0 1 3.443-1.9807" stroke-width=".265"/>
   <path d="m87.312 29.771h43.656" stroke-width=".26458px"/>
  </g>
  <g transform="translate(0 11.906)" fill="none" stroke="#000">
   <path d="m87.308 37.708a3.9688 3.9688 0 0 1-3.4406-1.9847 3.9688 3.9688 0 0 1 0.0023-3.972 3.9688 3.9688 0 0 1 3.4429-1.9807" stroke-width=".265"/>
   <path transform="scale(-1)" d="m-130.97-29.771a3.9688 3.9688 0 0 1-3.4406-1.9847 3.9688 3.9688 0 0 1 2e-3 -3.972 3.9688 3.9688 0 0 1 3.443-1.9807" stroke-width=".265"/>
   <path d="m87.312 29.771h43.656" stroke-width=".26458px"/>
  </g>
  <g transform="translate(0 23.813)" fill="none" stroke="#000">
   <path d="m87.308 37.708a3.9688 3.9688 0 0 1-3.4406-1.9847 3.9688 3.9688 0 0 1 0.0023-3.972 3.9688 3.9688 0 0 1 3.4429-1.9807" stroke-width=".265"/>
   <path transform="scale(-1)" d="m-130.97-29.771a3.9688 3.9688 0 0 1-3.4406-1.9847 3.9688 3.9688 0 0 1 2e-3 -3.972 3.9688 3.9688 0 0 1 3.443-1.9807" stroke-width=".265"/>
   <path d="m87.312 29.771h43.656" stroke-width=".26458px"/>
  </g>
  <g transform="translate(0 34.396)" fill="none" stroke="#000">
   <path d="m87.308 37.708a3.9688 3.9688 0 0 1-3.4406-1.9847 3.9688 3.9688 0 0 1 0.0023-3.972 3.9688 3.9688 0 0 1 3.4429-1.9807" stroke-width=".265"/>
   <path transform="scale(-1)" d="m-130.97-29.771a3.9688 3.9688 0 0 1-3.4406-1.9847 3.9688 3.9688 0 0 1 2e-3 -3.972 3.9688 3.9688 0 0 1 3.443-1.9807" stroke-width=".265"/>
   <path d="m87.312 29.771h43.656" stroke-width=".26458px"/>
  </g>
  <g transform="matrix(0 .88891 -1 0 166.83 -42.021)" fill="none" stroke="#000">
   <path d="m87.308 37.708a3.9688 3.9688 0 0 1-3.4406-1.9847 3.9688 3.9688 0 0 1 0.0023-3.972 3.9688 3.9688 0 0 1 3.4429-1.9807" stroke-width=".265"/>
   <path transform="scale(-1)" d="m-130.97-29.771a3.9688 3.9688 0 0 1-3.4406-1.9847 3.9688 3.9688 0 0 1 2e-3 -3.972 3.9688 3.9688 0 0 1 3.443-1.9807" stroke-width=".265"/>
   <path d="m87.312 29.771h43.656" stroke-width=".26458px"/>
  </g>
  <g transform="matrix(0 .88891 -1 0 153.6 -42.021)" fill="none" stroke="#000">
   <path d="m87.308 37.708a3.9688 3.9688 0 0 1-3.4406-1.9847 3.9688 3.9688 0 0 1 0.0023-3.972 3.9688 3.9688 0 0 1 3.4429-1.9807" stroke-width=".265"/>
   <path transform="scale(-1)" d="m-130.97-29.771a3.9688 3.9688 0 0 1-3.4406-1.9847 3.9688 3.9688 0 0 1 2e-3 -3.972 3.9688 3.9688 0 0 1 3.443-1.9807" stroke-width=".265"/>
   <path d="m87.312 29.771h43.656" stroke-width=".26458px"/>
  </g>
  <g transform="matrix(0 .88891 -1 0 140.37 -42.021)" fill="none" stroke="#000">
   <path d="m87.308 37.708a3.9688 3.9688 0 0 1-3.4406-1.9847 3.9688 3.9688 0 0 1 0.0023-3.972 3.9688 3.9688 0 0 1 3.4429-1.9807" stroke-width=".265"/>
   <path transform="scale(-1)" d="m-130.97-29.771a3.9688 3.9688 0 0 1-3.4406-1.9847 3.9688 3.9688 0 0 1 2e-3 -3.972 3.9688 3.9688 0 0 1 3.443-1.9807" stroke-width=".265"/>
   <path d="m87.312 29.771h43.656" stroke-width=".26458px"/>
  </g>
  <g transform="matrix(0 .88891 -1 0 127.14 -42.021)" fill="none" stroke="#000">
   <path d="m87.308 37.708a3.9688 3.9688 0 0 1-3.4406-1.9847 3.9688 3.9688 0 0 1 0.0023-3.972 3.9688 3.9688 0 0 1 3.4429-1.9807" stroke-width=".265"/>
   <path transform="scale(-1)" d="m-130.97-29.771a3.9688 3.9688 0 0 1-3.4406-1.9847 3.9688 3.9688 0 0 1 2e-3 -3.972 3.9688 3.9688 0 0 1 3.443-1.9807" stroke-width=".265"/>
   <path d="m87.312 29.771h43.656" stroke-width=".26458px"/>
  </g>
 </g>
</svg>
