<svg width="63.243mm" height="77.637mm" version="1.1" viewBox="0 0 63.243 77.637" xmlns="http://www.w3.org/2000/svg" xmlns:cc="http://creativecommons.org/ns#" xmlns:dc="http://purl.org/dc/elements/1.1/" xmlns:rdf="http://www.w3.org/1999/02/22-rdf-syntax-ns#">
 <metadata>
  <rdf:RDF>
   <cc:Work rdf:about="">
    <dc:format>image/svg+xml</dc:format>
    <dc:type rdf:resource="http://purl.org/dc/dcmitype/StillImage"/>
    <dc:title/>
   </cc:Work>
  </rdf:RDF>
 </metadata>
 <g transform="translate(-36.724 -15.473)">
  <text x="36.777088" y="19.788733" fill="#000000" font-family="sans-serif" font-size="10.583px" letter-spacing="0px" stroke-width=".26458" word-spacing="0px" style="line-height:1.25" xml:space="preserve"><tspan x="36.777088" y="19.788733" font-size="3.5278px" stroke-width=".26458">1D</tspan></text>
  <g transform="translate(-.39687 -13.494)" stroke="#000">
   <circle cx="49.992" cy="31.467" r="2.2724" fill-rule="evenodd" stroke-width=".4552"/>
   <circle cx="63.6" cy="31.467" r="2.2724" fill-rule="evenodd" stroke-width=".4552"/>
   <path d="m52.387 31.623h8.7312" fill="none" stroke-width=".26458px"/>
  </g>
  <g transform="translate(-.39687 2.6458)" stroke="#000">
   <circle cx="49.992" cy="31.467" r="2.2724" fill-rule="evenodd" stroke-width=".4552"/>
   <circle cx="63.6" cy="31.467" r="2.2724" fill-rule="evenodd" stroke-width=".4552"/>
   <path d="m52.387 31.623h8.7312" fill="none" stroke-width=".26458px"/>
   <path d="m50.006 42.735v-8.7312" fill="none" stroke-width=".26458px"/>
   <g transform="translate(0 13.758)">
    <circle cx="49.992" cy="31.467" r="2.2724" fill-rule="evenodd" stroke-width=".4552"/>
    <circle cx="63.6" cy="31.467" r="2.2724" fill-rule="evenodd" stroke-width=".4552"/>
    <path d="m52.387 31.623h8.7312" fill="none" stroke-width=".26458px"/>
   </g>
   <path d="m63.5 42.735v-8.7312" fill="none" stroke-width=".26458px"/>
  </g>
  <text x="36.446358" y="34.926678" fill="#000000" font-family="sans-serif" font-size="10.583px" letter-spacing="0px" stroke-width=".26458" word-spacing="0px" style="line-height:1.25" xml:space="preserve"><tspan x="36.446358" y="34.926678" font-size="3.5278px" stroke-width=".26458">2D</tspan></text>
  <g transform="translate(1.0583)" stroke="#000">
   <g transform="translate(26.458 -.52917)">
    <circle cx="49.992" cy="31.467" r="2.2724" fill-rule="evenodd" stroke-width=".4552"/>
    <circle cx="63.6" cy="31.467" r="2.2724" fill-rule="evenodd" stroke-width=".4552"/>
    <path d="m52.387 31.623h8.7312" fill="none" stroke-width=".26458px"/>
    <path d="m50.006 42.735v-8.7312" fill="none" stroke-width=".26458px"/>
    <g transform="translate(0 13.758)">
     <circle cx="49.992" cy="31.467" r="2.2724" fill-rule="evenodd" stroke-width=".4552"/>
     <circle cx="63.6" cy="31.467" r="2.2724" fill-rule="evenodd" stroke-width=".4552"/>
     <path d="m52.387 31.623h8.7312" fill="none" stroke-width=".26458px"/>
    </g>
    <path d="m63.5 42.735v-8.7312" fill="none" stroke-width=".26458px"/>
   </g>
   <g transform="translate(32.808 -6.8792)">
    <circle cx="49.992" cy="31.467" r="2.2724" fill-rule="evenodd" stroke-width=".4552"/>
    <circle cx="63.6" cy="31.467" r="2.2724" fill-rule="evenodd" stroke-width=".4552"/>
    <path d="m52.387 31.623h8.7312" fill="none" stroke-width=".26458px"/>
    <path d="m50.006 42.735v-8.7312" fill="none" stroke-width=".26458px"/>
    <g transform="translate(0 13.758)">
     <circle cx="49.992" cy="31.467" r="2.2724" fill-rule="evenodd" stroke-width=".4552"/>
     <circle cx="63.6" cy="31.467" r="2.2724" fill-rule="evenodd" stroke-width=".4552"/>
     <path d="m52.387 31.623h8.7312" fill="none" stroke-width=".26458px"/>
    </g>
    <path d="m63.5 42.735v-8.7312" fill="none" stroke-width=".26458px"/>
   </g>
   <g fill="none" stroke-width=".26458px">
    <path d="m83.344 24.479-6.6146 6.6146"/>
    <path d="m96.573 24.479-6.6146 6.6146"/>
    <path d="m96.573 37.708-6.6146 6.6146"/>
    <path d="m83.344 37.708-6.6146 6.6146"/>
   </g>
  </g>
  <text x="87.027435" y="19.064766" fill="#000000" font-family="sans-serif" font-size="10.583px" letter-spacing="0px" stroke-width=".26458" word-spacing="0px" style="line-height:1.25" xml:space="preserve"><tspan x="87.027435" y="19.064766" font-size="3.5278px" stroke-width=".26458">3D</tspan></text>
  <g transform="translate(0 5.8208)" stroke="#000">
   <g transform="translate(-31.75 34.396)">
    <g transform="translate(26.458 -.52917)">
     <circle cx="49.992" cy="31.467" r="2.2724" fill-rule="evenodd" stroke-width=".4552"/>
     <circle cx="63.6" cy="31.467" r="2.2724" fill-rule="evenodd" stroke-width=".4552"/>
     <path d="m52.387 31.623h8.7312" fill="none" stroke-width=".26458px"/>
     <path d="m50.006 42.735v-8.7312" fill="none" stroke-width=".26458px"/>
     <g transform="translate(0 13.758)">
      <circle cx="49.992" cy="31.467" r="2.2724" fill-rule="evenodd" stroke-width=".4552"/>
      <circle cx="63.6" cy="31.467" r="2.2724" fill-rule="evenodd" stroke-width=".4552"/>
      <path d="m52.387 31.623h8.7312" fill="none" stroke-width=".26458px"/>
     </g>
     <path d="m63.5 42.735v-8.7312" fill="none" stroke-width=".26458px"/>
    </g>
    <g transform="translate(32.808 -6.8792)">
     <circle cx="49.992" cy="31.467" r="2.2724" fill-rule="evenodd" stroke-width=".4552"/>
     <circle cx="63.6" cy="31.467" r="2.2724" fill-rule="evenodd" stroke-width=".4552"/>
     <path d="m52.387 31.623h8.7312" fill="none" stroke-width=".26458px"/>
     <path d="m50.006 42.735v-8.7312" fill="none" stroke-width=".26458px"/>
     <g transform="translate(0 13.758)">
      <circle cx="49.992" cy="31.467" r="2.2724" fill-rule="evenodd" stroke-width=".4552"/>
      <circle cx="63.6" cy="31.467" r="2.2724" fill-rule="evenodd" stroke-width=".4552"/>
      <path d="m52.387 31.623h8.7312" fill="none" stroke-width=".26458px"/>
     </g>
     <path d="m63.5 42.735v-8.7312" fill="none" stroke-width=".26458px"/>
    </g>
    <g fill="none" stroke-width=".26458px">
     <path d="m83.344 24.479-6.6146 6.6146"/>
     <path d="m96.573 24.479-6.6146 6.6146"/>
     <path d="m96.573 37.708-6.6146 6.6146"/>
     <path d="m83.344 37.708-6.6146 6.6146"/>
    </g>
   </g>
   <g transform="translate(-1.3229 33.338)">
    <g transform="translate(26.458 -.52917)">
     <circle cx="49.992" cy="31.467" r="2.2724" fill-rule="evenodd" stroke-width=".4552"/>
     <circle cx="63.6" cy="31.467" r="2.2724" fill-rule="evenodd" stroke-width=".4552"/>
     <path d="m52.387 31.623h8.7312" fill="none" stroke-width=".26458px"/>
     <path d="m50.006 42.735v-8.7312" fill="none" stroke-width=".26458px"/>
     <g transform="translate(0 13.758)">
      <circle cx="49.992" cy="31.467" r="2.2724" fill-rule="evenodd" stroke-width=".4552"/>
      <circle cx="63.6" cy="31.467" r="2.2724" fill-rule="evenodd" stroke-width=".4552"/>
      <path d="m52.387 31.623h8.7312" fill="none" stroke-width=".26458px"/>
     </g>
     <path d="m63.5 42.735v-8.7312" fill="none" stroke-width=".26458px"/>
    </g>
    <g transform="translate(32.808 -6.8792)">
     <circle cx="49.992" cy="31.467" r="2.2724" fill-rule="evenodd" stroke-width=".4552"/>
     <circle cx="63.6" cy="31.467" r="2.2724" fill-rule="evenodd" stroke-width=".4552"/>
     <path d="m52.387 31.623h8.7312" fill="none" stroke-width=".26458px"/>
     <path d="m50.006 42.735v-8.7312" fill="none" stroke-width=".26458px"/>
     <g transform="translate(0 13.758)">
      <circle cx="49.992" cy="31.467" r="2.2724" fill-rule="evenodd" stroke-width=".4552"/>
      <circle cx="63.6" cy="31.467" r="2.2724" fill-rule="evenodd" stroke-width=".4552"/>
      <path d="m52.387 31.623h8.7312" fill="none" stroke-width=".26458px"/>
     </g>
     <path d="m63.5 42.735v-8.7312" fill="none" stroke-width=".26458px"/>
    </g>
    <g fill="none" stroke-width=".26458px">
     <path d="m83.344 24.479-6.6146 6.6146"/>
     <path d="m96.573 24.479-6.6146 6.6146"/>
     <path d="m96.573 37.708-6.6146 6.6146"/>
     <path d="m83.344 37.708-6.6146 6.6146"/>
    </g>
   </g>
   <g fill="none" stroke-width=".26458px">
    <path d="m51.594 58.875v-6.6146h29.104v5.2917"/>
    <path d="m64.823 58.875v-5.2917h30.427v3.9688"/>
    <path d="m44.979 65.49v-10.583h29.104v7.9375"/>
    <path d="m58.208 65.49v-5.2917h30.427v3.9688"/>
    <path d="m51.594 72.104v-3.9688h29.104v2.6458"/>
    <path d="m66.146 72.104v-2.6458h26.458l2.6458 2.6458"/>
    <path d="m43.656 78.719v-3.9688h29.104l2.6458 2.6458-3e-6 0.26458"/>
    <path d="m59.531 78.719v-2.6458h26.458l2.6458 1.5875"/>
   </g>
  </g>
  <text x="66.125351" y="93.110313" fill="#000000" font-family="sans-serif" font-size="10.583px" letter-spacing="0px" stroke-width=".26458" word-spacing="0px" style="line-height:1.25" xml:space="preserve"><tspan x="66.125351" y="93.110313" font-size="3.5278px" stroke-width=".26458">4D</tspan></text>
 </g>
</svg>
