<svg width="44.213mm" height="44.926mm" version="1.1" viewBox="0 0 44.213 44.926" xmlns="http://www.w3.org/2000/svg" xmlns:cc="http://creativecommons.org/ns#" xmlns:dc="http://purl.org/dc/elements/1.1/" xmlns:rdf="http://www.w3.org/1999/02/22-rdf-syntax-ns#">
 <metadata>
  <rdf:RDF>
   <cc:Work rdf:about="">
    <dc:format>image/svg+xml</dc:format>
    <dc:type rdf:resource="http://purl.org/dc/dcmitype/StillImage"/>
    <dc:title/>
   </cc:Work>
  </rdf:RDF>
 </metadata>
 <g transform="translate(-17.896 -53.749)" stroke="#000">
  <g fill-rule="evenodd" stroke-width=".19641">
   <circle cx="20.396" cy="76.357" r="2.4018"/>
   <circle cx="20.396" cy="86.266" r="2.4018"/>
   <circle cx="20.396" cy="96.175" r="2.4018"/>
   <circle cx="30.213" cy="76.357" r="2.4018"/>
   <circle cx="30.213" cy="86.208" r="2.4018"/>
   <circle cx="30.429" cy="96.175" r="2.4018"/>
   <circle cx="40.03" cy="76.357" r="2.4018"/>
   <circle cx="40.03" cy="86.208" r="2.4018"/>
   <circle cx="40.03" cy="96.175" r="2.4018"/>
   <circle cx="30.186" cy="66.568" r="2.4018"/>
   <circle cx="40.003" cy="66.568" r="2.4018"/>
   <circle cx="49.82" cy="66.568" r="2.4018"/>
   <circle cx="49.82" cy="76.357" r="2.4018"/>
   <circle cx="49.82" cy="86.208" r="2.4018"/>
   <circle cx="39.975" cy="56.249" r="2.4018"/>
   <circle cx="49.792" cy="56.249" r="2.4018"/>
   <circle cx="59.61" cy="56.249" r="2.4018"/>
   <circle cx="59.345" cy="66.832" r="2.4018"/>
   <circle cx="59.345" cy="76.622" r="2.4018"/>
  </g>
  <g fill="none" stroke-width=".26458px">
   <path d="m19.844 95.917h19.844v-19.844h-19.844z"/>
   <path d="m39.688 85.863h-19.844"/>
   <path d="m30.427 76.073v19.844"/>
   <path d="m19.844 76.073 19.844-19.844h19.844v19.844l-9.2604 9.2604-9.2604 10.583"/>
   <path d="m30.427 66.812h19.844v18.521"/>
   <path d="m39.688 76.073 19.844-19.844"/>
   <path d="m50.271 56.229-19.844 19.844"/>
   <path d="m59.531 66.812-19.844 19.05"/>
  </g>
 </g>
</svg>
